<?xml version="1.0" encoding="utf-8"?>
<!-- Generator: Adobe Illustrator 26.0.0, SVG Export Plug-In . SVG Version: 6.00 Build 0)  -->
<svg version="1.1" id="Layer_1" xmlns="http://www.w3.org/2000/svg" xmlns:xlink="http://www.w3.org/1999/xlink" x="0px" y="0px"
	 viewBox="0 0 283.5 283.5" style="enable-background:new 0 0 283.5 283.5;" xml:space="preserve">
<style type="text/css">
	.st0{fill:#CD6432;}
	.st1{fill:#DCAA82;}
</style>
<g>
	<path d="M53.8,146.7C53.8,146.7,53.8,146.7,53.8,146.7C53.8,146.7,53.8,146.7,53.8,146.7z"/>
	<path d="M82.2,138.5c1-5.2,2.5-10.3,4.5-15.3c1.8-4.4,4.1-8.5,6.3-12.7c4.4-8.4,8.3-17.3,9.9-26.6c0.9-5.5,0.8-11.2-1.2-16.1
		c-11.5,3.4-22.4,8.9-32,16c-17.1,12.7-30.1,30.7-36.7,51c-7.7,23.7-6.3,49.5,3.5,72.3c3.1-2.8,6.3-5.6,9.3-8.5
		c6-5.6,12.1-11.2,18.3-16.5c5.7-4.8,11.5-9.3,18.3-12.3c-0.1-0.4-0.3-0.9-0.4-1.3C79.7,158.8,80.3,148.3,82.2,138.5z M58.8,149.7
		c-0.1,0-0.2,0-0.4,0c0,0-0.1,0-0.2,0c-0.1,0-0.2,0.1-0.3,0.1c0,0-0.1,0-0.1,0c0,0,0,0,0,0c-0.1,0-0.2,0.1-0.3,0.2
		c0,0-0.1,0.1-0.2,0.1c-0.1,0.1-0.2,0.2-0.4,0.3c0,0,0,0,0,0c0,0,0,0,0,0c-0.1,0.1-0.1,0.2-0.2,0.3c0,0.1-0.1,0.2-0.1,0.3
		c0,0-0.1,0.1-0.1,0.2c-0.1,0.2-0.1,0.4-0.2,0.6c0,0.1,0,0.1,0,0.1c0,0,0,0.1,0,0.1c0,0.1,0,0.2,0,0.4c0,0.6-0.5,1-1,1
		c-0.5,0-1-0.3-1-1c0-0.1,0-0.3,0-0.4c0,0,0-0.1,0-0.1c0,0,0,0,0-0.1c0-0.2-0.1-0.4-0.2-0.6c0,0,0-0.1,0-0.1c0,0,0,0,0-0.1
		c0-0.1-0.1-0.2-0.1-0.2c0-0.1-0.1-0.2-0.2-0.2c0,0,0,0,0,0c0,0-0.1-0.1-0.1-0.1c-0.1-0.1-0.1-0.2-0.2-0.2c0,0-0.1-0.1-0.1-0.1
		c-0.2-0.1-0.3-0.2-0.5-0.3c0,0-0.1,0-0.1-0.1c-0.1,0-0.2-0.1-0.3-0.1c-0.1,0-0.1,0-0.2,0c-0.1,0-0.2,0-0.3,0c-1.3,0-1.3-2,0-2
		c0,0,0.4,0,0.2,0c0.1,0,0.2,0,0.3-0.1c0,0,0.4-0.2,0.2-0.1c0.1,0,0.2-0.1,0.2-0.1c0.1,0,0.2-0.1,0.2-0.2c0,0,0,0,0,0
		c0,0,0.1-0.1,0.1-0.1c0.1-0.1,0.3-0.3,0.4-0.4c0,0,0.1-0.1,0.1-0.1c0.1-0.1,0.1-0.2,0.1-0.2c0.1-0.1,0.1-0.2,0.2-0.3c0,0,0,0,0,0
		c0,0,0,0,0,0c0.1-0.2,0.1-0.4,0.2-0.6c0,0,0-0.1,0-0.1c0-0.1,0-0.1,0-0.2c0-1.3,2-1.3,2,0c0,0.1,0,0.1,0,0.2c0,0,0,0.1,0,0.2
		c0,0.2,0.1,0.4,0.2,0.6c0,0,0,0,0,0c0,0,0,0,0,0c0.1,0.1,0.1,0.2,0.2,0.3c0,0.1,0.1,0.2,0.1,0.2c0,0,0.1,0.2,0.1,0.2
		c0,0,0.1,0.2,0.2,0.2c0.1,0.1,0.1,0.1,0.2,0.2c0,0,0.3,0.2,0.2,0.1c0.1,0.1,0.2,0.1,0.2,0.2c0,0,0.2,0.1,0.2,0.1
		c0,0,0.2,0.1,0.2,0.1c0.1,0,0.2,0,0.3,0.1c-0.2,0,0.2,0,0.2,0C60.1,147.7,60.1,149.7,58.8,149.7z M74.6,113
		c-4.2,0.1-6.8,3.7-6.9,7.7c0,0.6-0.5,1-1,1c-0.5,0-1-0.3-1-1c0-4.1-2.7-7.6-7-7.7c-1.3,0-1.3-2,0-2c3.8-0.1,6.9-4,7-7.7
		c0-1.3,2-1.3,2,0c0.1,3.6,3.1,7.6,6.9,7.7C75.9,111,75.9,113,74.6,113z"/>
	<path d="M136.2,181.4c5.6-0.1,11.4-1,16.5-3.6c4.4-2.2,9.2-6.3,10.3-11.4c-5.3,3.2-11,5.9-16.6,8.4c-5.2,2.3-10.5,4.4-15.8,6.3
		C132.5,181.4,134.4,181.5,136.2,181.4z"/>
	<path d="M192.5,101.2C192.5,101.1,192.5,101.1,192.5,101.2C192.5,101.2,192.5,101.2,192.5,101.2z"/>
	<path d="M225.6,150.2c2.4-0.7,5-0.8,7.3-0.1c-1.3-7.9-3.5-15.6-6.5-23C220.7,113.4,212,101,201,90.9c-10.8-9.9-23.6-17.5-37.5-22.1
		c0,2.9-0.2,5.9-0.5,8.8c-0.5,4.7-1.1,9.5-0.2,14.2c0.3,1.9,0.8,4.1,2.5,5.2c1.6,1.1,3.5,1.3,5-0.1c2.1-1.9,0.3-5.5-0.3-7.7
		c-0.9-3-1.2-6,0.8-8.5c0.4-0.5,1.2-0.3,1.6,0.2c3.4,5,5.3,11.1,7.1,16.8c1.7,5.3,3.1,10.8,4.5,16.2c0.1,0.4-0.1,0.9-0.5,1.1
		c-3.2,1.5-6.5,3-9.7,4.5c-3.3,1.5-6.6,3.4-10.1,4.6c-0.5,0.2-1.1-0.2-1.2-0.7c-0.8-4.9-2.6-9.5-5.1-13.7c-4.3-7-11-12.4-13.4-20.5
		c-1.7-5.7-0.9-11.6,0.2-17.3c-4.7,5.6-7.6,12.5-7.4,20c0.1,4.6,1.3,9,3.1,13.2c0.9,2.2,1.8,4.3,1.9,6.7c0.1,3.4-1.4,6.7-4.7,8
		c-3,1.2-6.3,0.3-8.7-1.7c-2.3-2-3.2-4.7-3.6-7.7c-0.3-2.6,0-5.2-0.6-7.8c-0.6-2.5-2.1-4-4.2-5c0.4,5.7-0.3,11.3-2.5,16.7
		c-2.1,5.1-5,9.7-7.4,14.6c-4.3,8.9-6.4,19.1-4.4,28.9c0.4,1.9,0.9,3.7,1.6,5.4c12.7-2.6,25.4-5.2,38.1-7.7c0-2.3,0-4.5,0-6.8
		c0-0.5,0.5-1,1-1c1.5,0,3,0,4.4,0c10.5,0,21,0.1,31.4,0.1c0.6,0,0.9,0.5,1,1c0.6,4.5,0.7,9,0.6,13.6c2.6-2.8,5.5-5.4,8.7-7.4
		c4.2-2.6,9.8-4.9,14.6-2.3c0.4,0.2,0.6,0.7,0.5,1.1c-1.3,3.2-2.7,6.3-4.1,9.4c2.5-2,5-3.9,7.7-5.6
		C215.5,154.5,220.4,151.6,225.6,150.2z M197.4,104.2c-0.1,0-0.2,0-0.4,0c0,0-0.1,0-0.2,0c-0.1,0-0.2,0.1-0.3,0.1c0,0-0.1,0-0.1,0
		c0,0,0,0,0,0c-0.1,0-0.2,0.1-0.3,0.2c0,0-0.1,0.1-0.2,0.1c-0.1,0.1-0.2,0.2-0.4,0.3c0,0,0,0,0,0c0,0,0,0,0,0
		c-0.1,0.1-0.1,0.2-0.2,0.3c0,0.1-0.1,0.2-0.1,0.3c0,0-0.1,0.1-0.1,0.2c-0.1,0.2-0.1,0.4-0.2,0.6c0,0.1,0,0.1,0,0.1c0,0,0,0.1,0,0.1
		c0,0.1,0,0.2,0,0.4c0,0.6-0.5,1-1,1c-0.5,0-1-0.3-1-1c0-0.1,0-0.3,0-0.4c0,0,0-0.1,0-0.1c0,0,0,0,0-0.1c0-0.2-0.1-0.4-0.2-0.6
		c0,0,0-0.1,0-0.1c0,0,0,0,0-0.1c0-0.1-0.1-0.2-0.1-0.2c0-0.1-0.1-0.2-0.2-0.2c0,0,0,0,0,0c0,0-0.1-0.1-0.1-0.1
		c-0.1-0.1-0.1-0.2-0.2-0.2c0,0-0.1-0.1-0.1-0.1c-0.2-0.1-0.3-0.2-0.5-0.3c0,0-0.1,0-0.1-0.1c-0.1,0-0.2-0.1-0.3-0.1
		c-0.1,0-0.1,0-0.2,0c-0.1,0-0.2,0-0.3,0c-1.3,0-1.3-2,0-2c0,0,0.4,0,0.2,0c0.1,0,0.2,0,0.3-0.1c0,0,0.4-0.2,0.2-0.1
		c0.1,0,0.2-0.1,0.2-0.1c0.1,0,0.2-0.1,0.2-0.2c0,0,0,0,0,0c0,0,0.1-0.1,0.1-0.1c0.1-0.1,0.3-0.3,0.4-0.4c0,0,0.1-0.1,0.1-0.1
		c0.1-0.1,0.1-0.2,0.1-0.2c0.1-0.1,0.1-0.2,0.2-0.3c0,0,0,0,0,0c0,0,0,0,0,0c0.1-0.2,0.1-0.4,0.2-0.6c0,0,0-0.1,0-0.1
		c0-0.1,0-0.1,0-0.2c0-1.3,2-1.3,2,0c0,0.1,0,0.1,0,0.2c0,0,0,0.1,0,0.2c0,0.2,0.1,0.4,0.2,0.6c0,0,0,0,0,0c0,0,0,0,0,0
		c0.1,0.1,0.1,0.2,0.2,0.3c0,0.1,0.1,0.2,0.1,0.2c0,0,0.1,0.2,0.1,0.2c0,0,0.1,0.2,0.2,0.2c0.1,0.1,0.1,0.1,0.2,0.2
		c0,0,0.3,0.2,0.2,0.1c0.1,0.1,0.2,0.1,0.2,0.2c0,0,0.2,0.1,0.2,0.1c0,0,0.2,0.1,0.2,0.1c0.1,0,0.2,0,0.3,0.1c-0.2,0,0.2,0,0.2,0
		C198.7,102.2,198.7,104.2,197.4,104.2z M208.2,140.8c0,0.6-0.5,1-1,1c-0.5,0-1-0.3-1-1c0-4.1-2.7-7.6-7-7.7c-1.3,0-1.3-2,0-2
		c3.8-0.1,6.9-4,7-7.7c0-1.3,2-1.3,2,0c0.1,3.6,3.1,7.6,6.9,7.7c1.3,0,1.3,2,0,2C210.8,133.2,208.2,136.8,208.2,140.8z"/>
	<path d="M110.3,75.9c0,1.4,0.3,2.7,1.2,3.8c1.2,1.4,3.4,2,5.1,1.4c1.9-0.7,3.2-3.8,3.4-5.7c0.3-2.6-0.7-5.3-1.8-7.6
		c-0.5-1.1-1-2.1-1.6-3.2c-2.8,0.4-5.6,0.9-8.3,1.5c0,0,0,0,0,0c0.8,1.7,1.4,3.6,1.7,5.5C110.2,73,110.3,74.5,110.3,75.9z"/>
	<path d="M167.6,221.3C167.6,221.3,167.6,221.3,167.6,221.3c-2,1.6-4.3,1.9-6.9,1.9c-3.4,0.1-6.8,0.2-10.2,0.3
		c-6.8,0.2-13.6,0.4-20.4,0.6c-13.6,0.4-27.2,0.6-40.8,1.2c-6.4,0.2-12.4,1.2-18,4.4c-4.7,2.7-8.9,6.3-12.9,10
		c1.2,1.2,2.4,2.4,3.7,3.5c12.3,11.1,27.4,19.2,43.5,23.3c15.6,4,32.2,4.2,47.9,0.7c14-3.1,27.3-9.2,38.8-17.7
		c11.4-8.4,21-19.2,28.1-31.5c6.9-12,11.4-25.4,13-39.2c-9.4,6-18.8,11.9-28.1,17.9C192.7,204.8,180,212.8,167.6,221.3z
		 M122.5,248.3c-4.2,0.1-6.8,3.7-6.9,7.7c0,0.6-0.5,1-1,1c-0.5,0-1-0.3-1-1c0-4.1-2.7-7.6-7-7.7c-1.3,0-1.3-2,0-2
		c3.8-0.1,6.9-4,7-7.7c0-1.3,2-1.3,2,0c0.1,3.6,3.1,7.6,6.9,7.7C123.8,246.3,123.8,248.2,122.5,248.3z M199.2,224.9
		c-0.1,0-0.2,0-0.4,0c0,0-0.1,0-0.2,0c-0.1,0-0.2,0.1-0.3,0.1c0,0-0.1,0-0.1,0c0,0,0,0,0,0c-0.1,0-0.2,0.1-0.3,0.2
		c0,0-0.1,0.1-0.2,0.1c-0.1,0.1-0.2,0.2-0.4,0.3c0,0,0,0,0,0c0,0,0,0,0,0c-0.1,0.1-0.1,0.2-0.2,0.3c0,0.1-0.1,0.2-0.1,0.3
		c0,0-0.1,0.1-0.1,0.2c-0.1,0.2-0.1,0.4-0.2,0.6c0,0.1,0,0.1,0,0.1c0,0,0,0.1,0,0.1c0,0.1,0,0.2,0,0.4c0,0.6-0.5,1-1,1
		c-0.5,0-1-0.3-1-1c0-0.1,0-0.3,0-0.4c0,0,0-0.1,0-0.1c0,0,0,0,0-0.1c0-0.2-0.1-0.4-0.2-0.6c0,0,0-0.1,0-0.1c0,0,0,0,0-0.1
		c0-0.1-0.1-0.2-0.1-0.2c0-0.1-0.1-0.2-0.2-0.2c0,0,0,0,0,0c0,0-0.1-0.1-0.1-0.1c-0.1-0.1-0.1-0.2-0.2-0.2c0,0-0.1-0.1-0.1-0.1
		c-0.2-0.1-0.3-0.2-0.5-0.3c0,0-0.1,0-0.1-0.1c-0.1,0-0.2-0.1-0.3-0.1c-0.1,0-0.1,0-0.2,0c-0.1,0-0.2,0-0.3,0c-1.3,0-1.3-2,0-2
		c0,0,0.4,0,0.2,0c0.1,0,0.2,0,0.3-0.1c0,0,0.4-0.2,0.2-0.1c0.1,0,0.2-0.1,0.2-0.1c0.1,0,0.2-0.1,0.2-0.2c0,0,0,0,0,0
		c0,0,0.1-0.1,0.1-0.1c0.1-0.1,0.3-0.3,0.4-0.4c0,0,0.1-0.1,0.1-0.1c0.1-0.1,0.1-0.2,0.1-0.2c0.1-0.1,0.1-0.2,0.2-0.3c0,0,0,0,0,0
		c0,0,0,0,0,0c0.1-0.2,0.1-0.4,0.2-0.6c0,0,0-0.1,0-0.1c0-0.1,0-0.1,0-0.2c0-1.3,2-1.3,2,0c0,0.1,0,0.1,0,0.2c0,0,0,0.1,0,0.2
		c0,0.2,0.1,0.4,0.2,0.6c0,0,0,0,0,0c0,0,0,0,0,0c0.1,0.1,0.1,0.2,0.2,0.3c0,0.1,0.1,0.2,0.1,0.2c0,0,0.1,0.2,0.1,0.2
		c0,0,0.1,0.2,0.2,0.2c0.1,0.1,0.1,0.1,0.2,0.2c0,0,0.3,0.2,0.2,0.1c0.1,0.1,0.2,0.1,0.2,0.2c0,0,0.2,0.1,0.2,0.1
		c0,0,0.2,0.1,0.2,0.1c0.1,0,0.2,0,0.3,0.1c-0.2,0,0.2,0,0.2,0C200.5,222.9,200.5,224.9,199.2,224.9z"/>
	<path d="M224.1,166.3c0.8-0.4,1.7-0.8,2.5-1.3c2.5-1.2,4.9-2.5,7.4-3.6c-0.1-1.5-0.2-3-0.3-4.5c-1.5,1.4-2.9,2.9-4.4,4.3
		C227.6,162.9,225.9,164.6,224.1,166.3z"/>
	<path d="M194.2,221.9C194.3,221.8,194.3,221.8,194.2,221.9C194.2,221.9,194.2,221.9,194.2,221.9z"/>
</g>
<path class="st0" d="M162.9,192.7c-3.4,4.3-7.8,9.8-13.8,9.4c-3.2-0.2-6.3-1-9.5-1.5c-3.2-0.5-6.4-1.1-9.5-1.6
	c-9.5-1.6-18.9-3.2-28.4-4.8c-8.1-6.2-14.2-14.7-17.1-24.5c-2.9-9.8-2.4-20.6-0.5-30.5c1-5.2,2.5-10.2,4.4-15.1
	c1.8-4.5,4.2-8.6,6.4-12.9c4.3-8.3,8.2-17.2,9.9-26.4c1.5-8.2,0.8-17-4.5-23.4c2,0.7,3.8,1.9,5.1,3.7c1.7,2.4,2.5,5.3,2.8,8.2
	c0.3,2.8-0.1,5.7,2,7.9c1.4,1.5,3.7,2.2,5.7,2c2.4-0.2,3.8-1.8,4.9-3.8c1.3-2.3,1.6-4.9,1-7.5c-1.2-5.9-5.4-10.7-7.3-16.4
	c-1.2-3.4-1.4-6.7-0.1-10.2c1.1-3,2.9-5.8,5.1-8.1c-1.1,8.9,2.2,21.4,13,19.6c5.5-0.9,8.2-6.4,7.8-11.6c-0.2-2.4-1.3-4.7-2.1-7
	c-1-2.9-2.3-6-2.7-9.1c-0.5-4,1.2-7.9,3.7-10.9c1.5-1.8,3.4-3.7,5.6-4.8c-1.7,3.2-2.9,6.6-3.2,10.2c-0.3,3.3,0.5,6.5,2.1,9.4
	c3.2,5.9,8.8,10.1,12.5,15.7c5.5,8.4,5.8,19.1,4.8,28.7c-0.5,4.9-1.1,10-0.1,14.9c0.3,1.8,0.9,4.1,2.2,5.4c1.3,1.3,3.4,2.2,5.2,2
	c1.7-0.2,3.6-1.5,4.3-3c0.7-1.4,0.5-3.1,0.2-4.6c-0.6-2.7-2.5-6.2-1.5-9c2.8,4.6,4.5,10.1,6.1,15.2c1.5,5,2.9,10,4.2,15
	c-2.9,1.4-5.9,2.7-8.8,4.1c-2.2,1-4.4,2-6.6,3c-0.7,0.3-1.5,0.7-2.2,1c-0.7-3.7-2-7.2-3.7-10.5c-2.1-4.1-5-7.6-7.9-11.1
	c-2.4-2.9-4.7-6-6.1-9.5c-1.2-2.9-1.6-6-1.5-9.1c0.1-4.2,1-8.4,2-12.6c0.2-1-0.9-1.7-1.7-1c-5.4,5.3-9.3,12-10.2,19.6
	c-0.6,5.2,0.1,10.5,1.9,15.4c0.5,1.4,1.1,2.8,1.7,4.2c0.4,0.8,0.9,2.3,1.1,3.6c0.3,2,0.1,4.2-1.2,5.8c-2,2.5-5.7,2.4-8.2,0.6
	c-2.5-1.8-3.3-4.6-3.5-7.5c-0.2-2.8,0.1-5.7-0.8-8.4c-1.1-3.2-3.7-4.9-6.8-5.9c-0.6-0.2-1.3,0.3-1.3,1c0.6,5.8,0.1,11.5-2,16.9
	c-1.9,4.8-4.6,9.1-6.9,13.6c-4.7,9.4-7.1,19.9-5.4,30.3c1.5,9,6.3,17.6,14.3,22.3c4.7,2.8,10.1,4,15.5,4.2
	c6.1,0.2,12.5-0.5,18.2-2.8c6.6-2.6,13.2-8.1,13.9-15.6c0-0.6,0-1.2,0-1.8c-0.1-0.5-0.4-1-1-1c-5.7-0.1-11.3-0.1-17-0.2
	c0-4.2,0-8.3,0-12.5c10.1,0,20.3,0.1,30.4,0.1c1.2,0,2.4,0,3.6,0c0.5,4.9,0.6,10,0.4,14.9c-0.2,0.2-0.3,0.4-0.5,0.6
	C174.3,173.9,169.7,184.1,162.9,192.7z"/>
<g>
	<path class="st1" d="M256.9,162.9c-3.2-5-9.6-6.4-15-4.6c-2,0.7-4,1.5-6,2.3c-0.1-1.8-0.2-3.6-0.4-5.4c0,0,0,0,0,0
		c0.5-0.4,0.9-0.9,1.4-1.3c0.4-0.4,0.4-1.1,0-1.4c-0.6-0.5-1.2-1-1.9-1.4c-2.3-15.1-7.8-29.7-16.3-42.4
		c-8.3-12.5-19.3-23.2-32.1-31.2c-7.3-4.5-15.1-8.1-23.2-10.8c-0.3-5.7-1.4-11.4-4.1-16.5c-3.1-5.9-8.4-10.1-12.2-15.4
		c-2-2.7-3.4-5.8-3.5-9.2c-0.2-4.8,2-9.4,4.4-13.5c0.5-0.8-0.3-1.7-1.1-1.5c-5.5,1.4-10.2,6.6-12.2,11.7c-1.2,2.9-1.4,6.1-0.6,9.1
		c0.8,3,1.8,5.9,2.8,8.8c0.7,2.1,1.6,4,1.6,6.3c0,2.3-0.7,4.7-2.3,6.4c-1.9,2-4.9,2.5-7.4,1.9c-2.3-0.6-4-2.2-5.1-4.2
		c-2.6-4.6-2.9-10.9-1.5-15.9c0.3-1-0.9-1.6-1.7-1c-4.9,3.9-9.3,10.7-8.8,17.2c0.3,4.2,2.1,8,4.1,11.7c-2.6,0.4-5.3,0.9-7.9,1.5
		c-0.2,0-0.3,0.1-0.5,0.3c-0.3-0.5-0.6-0.9-1-1.3c-2.3-2.7-5.6-4.1-9.1-4.4c-0.8-0.1-1.3,1.2-0.7,1.7c1.9,1.6,3.3,3.5,4.4,5.6
		c-20.8,6.3-39.5,19.1-52.8,36.3c-13.7,17.6-21.4,39.4-22,61.8c-0.4,15.6,2.9,31,9.2,45.3c0.3,0.6,1.1,0.6,1.6,0.2
		c6-5.3,11.8-10.7,17.7-16.1c5.8-5.3,11.7-10.8,18.1-15.5c3.2-2.4,6.7-4.4,10.4-6.1c2.8,8.5,7.9,15.9,14.6,21.8
		c-2.1-0.4-4.2-0.7-6.3-1.1c-6.8-1.2-14.1-2.7-21.1-1.9c-4.9,0.6-8.6,3.2-12.3,6.1c-1,0.8,0.4,2.2,1.4,1.4c3.3-2.6,6.6-5,10.9-5.5
		c6.1-0.8,12.6,0.5,18.6,1.5c4,0.7,8,1.3,11.9,2c0.2,0.1,0.4,0.1,0.6,0.1c8.4,1.4,16.8,2.8,25.2,4.2c6.4,1.1,12.7,2.2,19.1,3.2
		c2.6,0.4,5.4,0.8,8-0.1c2.4-0.9,4.3-2.6,6.1-4.4c7.8-7.6,12.5-17.5,18.5-26.5c3.2-4.8,6.8-9.5,11.3-13.3c3.9-3.3,10.4-7.7,15.8-5.5
		c-9.5,22.4-21.7,43.7-36.4,63.1c-0.1,0.1-0.1,0.2-0.2,0.3c-0.1,0.1-0.1,0.2-0.2,0.2c-0.7,1-1.5,1.9-2.5,2.6
		c-1.3,0.9-2.8,1.1-4.3,1.1c-3.3,0.2-6.7,0.2-10,0.3c-6.7,0.2-13.4,0.4-20.1,0.6c-13.5,0.4-26.9,0.7-40.4,1.1
		c-6.8,0.2-13.5,0.9-19.6,4.1c-5.7,3-10.4,7.3-15.1,11.6c-0.4,0.4-0.4,1,0,1.4c11.9,12,26.6,21.1,42.7,26.3
		c15.9,5.1,33,6.3,49.5,3.6c14.5-2.4,28.5-8,40.8-16.1c12-8,22.3-18.5,30.2-30.6c8-12.4,13.3-26.5,15.5-41.1
		c0.2-1.6,0.4-3.2,0.6-4.9c4-2.5,8-5.1,12-7.6c3-1.9,6-3.8,9-5.7C257,164,257.2,163.3,256.9,162.9z M234.1,161.4
		c-2.5,1.2-5,2.4-7.4,3.6c-0.8,0.4-1.7,0.8-2.5,1.3c1.8-1.7,3.5-3.4,5.3-5.2c1.5-1.4,2.9-2.9,4.4-4.3
		C233.9,158.4,234,159.9,234.1,161.4z M108.3,66.1c2.8-0.6,5.5-1.1,8.3-1.5c0.6,1,1.1,2.1,1.6,3.2c1.1,2.3,2.1,5,1.8,7.6
		c-0.2,1.9-1.5,5.1-3.4,5.7c-1.7,0.6-3.9,0-5.1-1.4c-0.9-1.1-1.2-2.4-1.2-3.8c0-1.5-0.1-2.9-0.4-4.3
		C109.7,69.7,109.1,67.8,108.3,66.1C108.3,66.1,108.3,66.1,108.3,66.1z M64.3,182.2C58,187.5,52,193.1,46,198.7
		c-3.1,2.8-6.2,5.7-9.3,8.5c-9.8-22.8-11.2-48.6-3.5-72.3c6.6-20.3,19.6-38.3,36.7-51c9.6-7.1,20.5-12.6,32-16
		c2,4.9,2.1,10.6,1.2,16.1c-1.6,9.4-5.5,18.2-9.9,26.6c-2.2,4.2-4.5,8.3-6.3,12.7c-2,4.9-3.5,10.1-4.5,15.3
		c-1.9,9.8-2.5,20.3,0,30.1c0.1,0.4,0.2,0.9,0.4,1.3C75.7,172.9,70,177.3,64.3,182.2z M162.9,192.7c-3.4,4.3-7.8,9.8-13.8,9.4
		c-3.2-0.2-6.3-1-9.5-1.5c-3.2-0.5-6.4-1.1-9.5-1.6c-9.5-1.6-18.9-3.2-28.4-4.8c-8.1-6.2-14.2-14.7-17.1-24.5
		c-2.9-9.8-2.4-20.6-0.5-30.5c1-5.2,2.5-10.2,4.4-15.1c1.8-4.5,4.2-8.6,6.4-12.9c4.3-8.3,8.2-17.2,9.9-26.4c1.5-8.2,0.8-17-4.5-23.4
		c2,0.7,3.8,1.9,5.1,3.7c1.7,2.4,2.5,5.3,2.8,8.2c0.3,2.8-0.1,5.7,2,7.9c1.4,1.5,3.7,2.2,5.7,2c2.4-0.2,3.8-1.8,4.9-3.8
		c1.3-2.3,1.6-4.9,1-7.5c-1.2-5.9-5.4-10.7-7.3-16.4c-1.2-3.4-1.4-6.7-0.1-10.2c1.1-3,2.9-5.8,5.1-8.1c-1.1,8.9,2.2,21.4,13,19.6
		c5.5-0.9,8.2-6.4,7.8-11.6c-0.2-2.4-1.3-4.7-2.1-7c-1-2.9-2.3-6-2.7-9.1c-0.5-4,1.2-7.9,3.7-10.9c1.5-1.8,3.4-3.7,5.6-4.8
		c-1.7,3.2-2.9,6.6-3.2,10.2c-0.3,3.3,0.5,6.5,2.1,9.4c3.2,5.9,8.8,10.1,12.5,15.7c5.5,8.4,5.8,19.1,4.8,28.7
		c-0.5,4.9-1.1,10-0.1,14.9c0.3,1.8,0.9,4.1,2.2,5.4c1.3,1.3,3.4,2.2,5.2,2c1.7-0.2,3.6-1.5,4.3-3c0.7-1.4,0.5-3.1,0.2-4.6
		c-0.6-2.7-2.5-6.2-1.5-9c2.8,4.6,4.5,10.1,6.1,15.2c1.5,5,2.9,10,4.2,15c-2.9,1.4-5.9,2.7-8.8,4.1c-2.2,1-4.4,2-6.6,3
		c-0.7,0.3-1.5,0.7-2.2,1c-0.7-3.7-2-7.2-3.7-10.5c-2.1-4.1-5-7.6-7.9-11.1c-2.4-2.9-4.7-6-6.1-9.5c-1.2-2.9-1.6-6-1.5-9.1
		c0.1-4.2,1-8.4,2-12.6c0.2-1-0.9-1.7-1.7-1c-5.4,5.3-9.3,12-10.2,19.6c-0.6,5.2,0.1,10.5,1.9,15.4c0.5,1.4,1.1,2.8,1.7,4.2
		c0.4,0.8,0.9,2.3,1.1,3.6c0.3,2,0.1,4.2-1.2,5.8c-2,2.5-5.7,2.4-8.2,0.6c-2.5-1.8-3.3-4.6-3.5-7.5c-0.2-2.8,0.1-5.7-0.8-8.4
		c-1.1-3.2-3.7-4.9-6.8-5.9c-0.6-0.2-1.3,0.3-1.3,1c0.6,5.8,0.1,11.5-2,16.9c-1.9,4.8-4.6,9.1-6.9,13.6c-4.7,9.4-7.1,19.9-5.4,30.3
		c1.5,9,6.3,17.6,14.3,22.3c4.7,2.8,10.1,4,15.5,4.2c6.1,0.2,12.5-0.5,18.2-2.8c6.6-2.6,13.2-8.1,13.9-15.6c0.1-0.6,0-1.2,0-1.8
		c-0.1-0.5-0.4-1-1-1c-5.7-0.1-11.3-0.1-17-0.2c0-4.2,0-8.3,0-12.5c10.1,0,20.3,0.1,30.4,0.1c1.2,0,2.4,0,3.6,0
		c0.5,4.9,0.6,10,0.4,14.9c-0.2,0.2-0.3,0.4-0.5,0.6C174.3,173.9,169.7,184.1,162.9,192.7z M163,122C163,122,163,122,163,122
		L163,122z M145.3,163c0,0.5,0.5,1,1,1c5.5,0.1,11.1,0.1,16.6,0.2c-5.4,3.3-11.3,6.1-17,8.8c-6.1,2.8-12.4,5.2-18.8,7.3
		c-0.2,0.1-0.3,0.1-0.4,0.2c-2.2-0.5-4.4-1.2-6.5-2.3c-5.7-2.9-9.8-7.7-12.3-13.3c12.5-2.5,24.9-5.1,37.4-7.6
		C145.3,159.3,145.3,161.2,145.3,163z M163.1,166.5c-1.1,5.1-5.9,9.2-10.3,11.4c-5.1,2.5-10.9,3.4-16.5,3.6c-1.9,0-3.7,0-5.6-0.2
		c5.4-1.9,10.7-3.9,15.8-6.3C152.1,172.4,157.8,169.7,163.1,166.5z M192.5,154.8c-3.3,2-6.2,4.6-8.7,7.4c0.1-4.5,0-9.1-0.6-13.6
		c-0.1-0.5-0.4-1-1-1c-10.5,0-21-0.1-31.4-0.1c-1.5,0-3,0-4.4,0c-0.5,0-1,0.5-1,1c0,2.3,0,4.5,0,6.8c-12.7,2.6-25.4,5.2-38.1,7.7
		c-0.7-1.8-1.2-3.6-1.6-5.4c-2-9.8,0.1-20,4.4-28.9c2.4-4.9,5.3-9.5,7.4-14.6c2.2-5.3,2.9-11,2.5-16.7c2.1,0.9,3.7,2.5,4.2,5
		c0.6,2.5,0.3,5.2,0.6,7.8c0.3,2.9,1.3,5.7,3.6,7.7c2.4,2.1,5.7,2.9,8.7,1.7c3.3-1.3,4.8-4.6,4.7-8c-0.1-2.4-0.9-4.5-1.9-6.7
		c-1.8-4.2-3-8.6-3.1-13.2c-0.2-7.5,2.7-14.4,7.4-20c-1.2,5.7-1.9,11.6-0.2,17.3c2.4,8.1,9.2,13.4,13.4,20.5
		c2.6,4.2,4.3,8.9,5.1,13.7c0.1,0.5,0.8,0.9,1.2,0.7c3.4-1.2,6.7-3.1,10.1-4.6c3.2-1.5,6.5-3,9.7-4.5c0.4-0.2,0.6-0.7,0.5-1.1
		c-1.4-5.4-2.8-10.8-4.5-16.2c-1.8-5.7-3.7-11.8-7.1-16.8c-0.3-0.5-1.1-0.7-1.6-0.2c-2,2.6-1.6,5.6-0.8,8.5c0.6,2.2,2.4,5.8,0.3,7.7
		c-1.5,1.4-3.3,1.2-5,0.1c-1.7-1.1-2.1-3.4-2.5-5.2c-0.9-4.6-0.3-9.5,0.2-14.2c0.3-2.9,0.5-5.8,0.5-8.8
		c13.9,4.6,26.8,12.2,37.5,22.1c10.9,10.1,19.6,22.5,25.3,36.2c3.1,7.4,5.2,15.1,6.5,23c-2.3-0.7-4.9-0.6-7.3,0.1
		c-5.2,1.4-10,4.3-14.5,7.3c-2.6,1.8-5.2,3.7-7.7,5.6c1.4-3.1,2.8-6.2,4.1-9.4c0.2-0.4-0.1-0.9-0.5-1.1
		C202.3,150,196.7,152.2,192.5,154.8z M188.9,190.8c4.6-7.7,8.8-15.7,12.7-23.8c0.1,0,0.3-0.1,0.4-0.2c6.1-5.1,12.8-10,20.1-13.3
		c4-1.7,8.8-3.1,12.6-0.4c-6.7,6.6-13.3,13.1-20,19.7c-11.7,11.5-23.4,22.9-35.2,34.2c-1,1-2.1,2-3.1,3c0.8-1.2,1.7-2.4,2.5-3.6
		C182.4,201.3,185.7,196.1,188.9,190.8z M220.5,218c-7.1,12.3-16.7,23.1-28.1,31.5c-11.5,8.5-24.8,14.6-38.8,17.7
		c-15.7,3.5-32.3,3.3-47.9-0.7c-16.1-4.1-31.1-12.2-43.5-23.3c-1.3-1.1-2.5-2.3-3.7-3.5c4-3.7,8.1-7.3,12.9-10
		c5.6-3.2,11.7-4.1,18-4.4c13.6-0.5,27.2-0.8,40.8-1.2c6.8-0.2,13.6-0.4,20.4-0.6c3.4-0.1,6.8-0.2,10.2-0.3c2.5-0.1,4.9-0.4,6.8-1.9
		c0,0,0,0,0,0c12.4-8.5,25.1-16.5,37.7-24.5c9.4-6,18.7-12,28.1-17.9C231.8,192.6,227.4,206,220.5,218z M230.3,178.5
		c-15.3,9.7-30.6,19.4-45.8,29.3c-3,1.9-6,3.9-9,5.9c1.2-1.2,2.5-2.4,3.7-3.6c5.4-5.2,10.8-10.4,16.2-15.7
		c8.1-7.8,16.1-15.7,24.1-23.6c0,0,0.1,0,0.1,0c5.9-2.9,11.8-6,17.8-8.6c2.5-1.1,5.2-2.4,7.9-2.7c3.4-0.4,7,1,9.2,3.7
		C246.5,168.2,238.4,173.3,230.3,178.5z"/>
	<path class="st1" d="M122.5,246.3c-3.8-0.1-6.8-4.1-6.9-7.7c0-1.3-2-1.3-2,0c-0.1,3.6-3.2,7.6-7,7.7c-1.3,0-1.3,2,0,2
		c4.3,0.1,6.9,3.6,7,7.7c0,0.6,0.5,1,1,1c0.5,0,1-0.3,1-1c0-4,2.7-7.6,6.9-7.7C123.8,248.2,123.8,246.3,122.5,246.3z M114.6,251.5
		c-0.9-1.9-2.3-3.4-4.1-4.3c1.8-1,3.2-2.6,4.1-4.5c0.9,1.9,2.3,3.5,4.1,4.5C116.9,248.1,115.5,249.6,114.6,251.5z"/>
	<path class="st1" d="M74.6,111c-3.8-0.1-6.8-4.1-6.9-7.7c0-1.3-2-1.3-2,0c-0.1,3.6-3.2,7.6-7,7.7c-1.3,0-1.3,2,0,2
		c4.3,0.1,6.9,3.6,7,7.7c0,0.6,0.5,1,1,1c0.5,0,1-0.3,1-1c0-4,2.7-7.6,6.9-7.7C75.9,113,75.9,111,74.6,111z M66.8,116.2
		c-0.9-1.9-2.3-3.4-4.1-4.3c1.8-1,3.2-2.6,4.1-4.5c0.9,1.9,2.3,3.5,4.1,4.5C69,112.8,67.6,114.4,66.8,116.2z"/>
	<path class="st1" d="M207.2,141.8c0.5,0,1-0.3,1-1c0-4,2.7-7.6,6.9-7.7c1.3,0,1.3-2,0-2c-3.8-0.1-6.8-4.1-6.9-7.7c0-1.3-2-1.3-2,0
		c-0.1,3.6-3.2,7.6-7,7.7c-1.3,0-1.3,2,0,2c4.3,0.1,6.9,3.6,7,7.7C206.2,141.5,206.7,141.8,207.2,141.8z M203,132.1
		c1.8-1,3.2-2.6,4.1-4.5c0.9,1.9,2.3,3.5,4.1,4.5c-1.8,0.9-3.2,2.4-4.1,4.3C206.3,134.5,204.9,133,203,132.1z"/>
	<path class="st1" d="M199.2,222.9c0,0-0.4,0-0.2,0c-0.1,0-0.2,0-0.3-0.1c0,0-0.2-0.1-0.2-0.1c0,0-0.2-0.1-0.2-0.1
		c-0.1,0-0.2-0.1-0.2-0.2c0.2,0.1-0.1-0.1-0.2-0.1c-0.1-0.1-0.1-0.1-0.2-0.2c0,0-0.1-0.1-0.2-0.2c0,0-0.1-0.2-0.1-0.2
		c-0.1-0.1-0.1-0.2-0.1-0.2c-0.1-0.1-0.1-0.2-0.2-0.3c0,0,0,0,0,0c0,0,0,0,0,0c-0.1-0.2-0.1-0.4-0.2-0.6c0,0,0-0.2,0-0.2
		c0-0.1,0-0.1,0-0.2c0-1.3-2-1.3-2,0c0,0.1,0,0.1,0,0.2c0,0,0,0.1,0,0.1c0,0.2-0.1,0.4-0.2,0.6c0,0,0,0,0,0c0,0,0,0,0,0
		c-0.1,0.1-0.1,0.2-0.2,0.3c0,0.1-0.1,0.2-0.1,0.2c0,0-0.1,0.1-0.1,0.1c-0.1,0.2-0.3,0.3-0.4,0.4c0,0-0.1,0.1-0.1,0.1c0,0,0,0,0,0
		c-0.1,0.1-0.2,0.1-0.2,0.2c-0.1,0-0.2,0.1-0.2,0.1c0.2-0.1-0.2,0.1-0.2,0.1c-0.1,0-0.2,0-0.3,0.1c0.2,0-0.2,0-0.2,0
		c-1.3,0-1.3,2,0,2c0.1,0,0.2,0,0.3,0c0.1,0,0.1,0,0.2,0c0.1,0,0.2,0,0.3,0.1c0,0,0.1,0,0.1,0.1c0.2,0.1,0.3,0.2,0.5,0.3
		c0,0,0.1,0.1,0.1,0.1c0.1,0.1,0.1,0.1,0.2,0.2c0,0,0.1,0.1,0.1,0.1c0,0,0,0,0,0c0.1,0.1,0.1,0.2,0.2,0.2c0,0.1,0.1,0.2,0.1,0.2
		c0,0,0,0.1,0,0.1c0,0,0,0.1,0,0.1c0.1,0.2,0.1,0.4,0.2,0.6c0,0,0,0.1,0,0.1c0,0,0,0,0,0.1c0,0.1,0,0.3,0,0.4c0,0.6,0.5,1,1,1
		c0.5,0,1-0.3,1-1c0-0.1,0-0.2,0-0.4c0,0,0-0.1,0-0.1c0,0,0,0,0-0.1c0-0.2,0.1-0.4,0.2-0.6c0,0,0.1-0.1,0.1-0.2
		c0-0.1,0.1-0.2,0.1-0.3c0.1-0.1,0.1-0.2,0.2-0.3c0,0,0,0,0,0c0,0,0,0,0,0c0.1-0.1,0.2-0.2,0.4-0.3c0,0,0.1-0.1,0.2-0.1
		c0.1-0.1,0.2-0.1,0.3-0.2c0,0,0,0,0,0c0,0,0,0,0.1,0c0.1,0,0.2-0.1,0.3-0.1c0,0,0.1,0,0.2,0c0.1,0,0.2,0,0.4,0
		C200.5,224.9,200.5,222.9,199.2,222.9z M194.2,221.9C194.2,221.9,194.2,221.9,194.2,221.9C194.3,221.8,194.3,221.8,194.2,221.9z
		 M195.9,224.6c-0.1-0.1-0.2-0.2-0.3-0.3c-0.2-0.2-0.3-0.3-0.5-0.4c0.3-0.2,0.5-0.5,0.7-0.8c0.2,0.3,0.5,0.6,0.7,0.8
		C196.3,224,196.1,224.3,195.9,224.6z"/>
	<path class="st1" d="M197.4,102.2c0,0-0.4,0-0.2,0c-0.1,0-0.2,0-0.3-0.1c0,0-0.2-0.1-0.2-0.1c0,0-0.2-0.1-0.2-0.1
		c-0.1,0-0.2-0.1-0.2-0.2c0.2,0.1-0.1-0.1-0.2-0.1c-0.1-0.1-0.1-0.1-0.2-0.2c0,0-0.1-0.1-0.2-0.2c0,0-0.1-0.2-0.1-0.2
		c-0.1-0.1-0.1-0.2-0.1-0.2c-0.1-0.1-0.1-0.2-0.2-0.3c0,0,0,0,0,0c0,0,0,0,0,0c-0.1-0.2-0.1-0.4-0.2-0.6c0,0,0-0.2,0-0.2
		c0-0.1,0-0.1,0-0.2c0-1.3-2-1.3-2,0c0,0.1,0,0.1,0,0.2c0,0,0,0.1,0,0.1c0,0.2-0.1,0.4-0.2,0.6c0,0,0,0,0,0c0,0,0,0,0,0
		c-0.1,0.1-0.1,0.2-0.2,0.3c0,0.1-0.1,0.2-0.1,0.2c0,0-0.1,0.1-0.1,0.1c-0.1,0.2-0.3,0.3-0.4,0.4c0,0-0.1,0.1-0.1,0.1c0,0,0,0,0,0
		c-0.1,0.1-0.2,0.1-0.2,0.2c-0.1,0-0.2,0.1-0.2,0.1c0.2-0.1-0.2,0.1-0.2,0.1c-0.1,0-0.2,0-0.3,0.1c0.2,0-0.2,0-0.2,0
		c-1.3,0-1.3,2,0,2c0.1,0,0.2,0,0.3,0c0.1,0,0.1,0,0.2,0c0.1,0,0.2,0,0.3,0.1c0,0,0.1,0,0.1,0.1c0.2,0.1,0.3,0.2,0.5,0.3
		c0,0,0.1,0.1,0.1,0.1c0.1,0.1,0.1,0.1,0.2,0.2c0,0,0.1,0.1,0.1,0.1c0,0,0,0,0,0c0.1,0.1,0.1,0.2,0.2,0.2c0,0.1,0.1,0.2,0.1,0.2
		c0,0,0,0.1,0,0.1c0,0,0,0.1,0,0.1c0.1,0.2,0.1,0.4,0.2,0.6c0,0,0,0.1,0,0.1c0,0,0,0,0,0.1c0,0.1,0,0.3,0,0.4c0,0.6,0.5,1,1,1
		c0.5,0,1-0.3,1-1c0-0.1,0-0.2,0-0.4c0,0,0-0.1,0-0.1c0,0,0,0,0-0.1c0-0.2,0.1-0.4,0.2-0.6c0,0,0.1-0.1,0.1-0.2
		c0-0.1,0.1-0.2,0.1-0.3c0.1-0.1,0.1-0.2,0.2-0.3c0,0,0,0,0,0c0,0,0,0,0,0c0.1-0.1,0.2-0.2,0.4-0.3c0,0,0.1-0.1,0.2-0.1
		c0.1-0.1,0.2-0.1,0.3-0.2c0,0,0,0,0,0c0,0,0,0,0.1,0c0.1,0,0.2-0.1,0.3-0.1c0,0,0.1,0,0.2,0c0.1,0,0.2,0,0.4,0
		C198.7,104.2,198.7,102.2,197.4,102.2z M192.5,101.2C192.5,101.2,192.5,101.2,192.5,101.2C192.5,101.1,192.5,101.1,192.5,101.2z
		 M194.1,103.9c-0.1-0.1-0.2-0.2-0.3-0.3c-0.2-0.2-0.3-0.3-0.5-0.4c0.3-0.2,0.5-0.5,0.7-0.8c0.2,0.3,0.5,0.6,0.7,0.8
		C194.6,103.3,194.3,103.6,194.1,103.9z"/>
	<path class="st1" d="M58.8,147.7c0,0-0.4,0-0.2,0c-0.1,0-0.2,0-0.3-0.1c0,0-0.2-0.1-0.2-0.1c0,0-0.2-0.1-0.2-0.1
		c-0.1,0-0.2-0.1-0.2-0.2c0.2,0.1-0.1-0.1-0.2-0.1c-0.1-0.1-0.1-0.1-0.2-0.2c0,0-0.1-0.1-0.2-0.2c0,0-0.1-0.2-0.1-0.2
		c0-0.1-0.1-0.2-0.1-0.2c-0.1-0.1-0.1-0.2-0.2-0.3c0,0,0,0,0,0c0,0,0,0,0,0c-0.1-0.2-0.1-0.4-0.2-0.6c0,0,0-0.2,0-0.2
		c0-0.1,0-0.1,0-0.2c0-1.3-2-1.3-2,0c0,0.1,0,0.1,0,0.2c0,0,0,0.1,0,0.1c0,0.2-0.1,0.4-0.2,0.6c0,0,0,0,0,0c0,0,0,0,0,0
		c-0.1,0.1-0.1,0.2-0.2,0.3c0,0.1-0.1,0.2-0.1,0.2c0,0-0.1,0.1-0.1,0.1c-0.1,0.2-0.3,0.3-0.4,0.4c0,0-0.1,0.1-0.1,0.1c0,0,0,0,0,0
		c-0.1,0.1-0.2,0.1-0.2,0.2c-0.1,0-0.2,0.1-0.2,0.1c0.2-0.1-0.2,0.1-0.2,0.1c-0.1,0-0.2,0-0.3,0.1c0.2,0-0.2,0-0.2,0
		c-1.3,0-1.3,2,0,2c0.1,0,0.2,0,0.3,0c0.1,0,0.1,0,0.2,0c0.1,0,0.2,0,0.3,0.1c0,0,0.1,0,0.1,0.1c0.2,0.1,0.3,0.2,0.5,0.3
		c0,0,0.1,0.1,0.1,0.1c0.1,0.1,0.1,0.1,0.2,0.2c0,0,0.1,0.1,0.1,0.1c0,0,0,0,0,0c0.1,0.1,0.1,0.2,0.2,0.2c0,0.1,0.1,0.2,0.1,0.2
		c0,0,0,0.1,0,0.1c0,0,0,0.1,0,0.1c0.1,0.2,0.1,0.4,0.2,0.6c0,0,0,0.1,0,0.1c0,0,0,0,0,0.1c0,0.1,0,0.3,0,0.4c0,0.6,0.5,1,1,1
		c0.5,0,1-0.3,1-1c0-0.1,0-0.2,0-0.4c0,0,0-0.1,0-0.1c0,0,0,0,0-0.1c0-0.2,0.1-0.4,0.2-0.6c0,0,0.1-0.1,0.1-0.2
		c0-0.1,0.1-0.2,0.1-0.3c0.1-0.1,0.1-0.2,0.2-0.3c0,0,0,0,0,0c0,0,0,0,0,0c0.1-0.1,0.2-0.2,0.4-0.3c0,0,0.1-0.1,0.2-0.1
		c0.1-0.1,0.2-0.1,0.3-0.2c0,0,0,0,0,0c0,0,0,0,0.1,0c0.1,0,0.2-0.1,0.3-0.1c0,0,0.1,0,0.2,0c0.1,0,0.2,0,0.4,0
		C60.1,149.7,60.1,147.7,58.8,147.7z M53.8,146.7C53.8,146.7,53.8,146.7,53.8,146.7C53.8,146.7,53.8,146.7,53.8,146.7z M55.5,149.4
		c-0.1-0.1-0.2-0.2-0.3-0.3c-0.2-0.2-0.3-0.3-0.5-0.4c0.3-0.2,0.5-0.5,0.7-0.8c0.2,0.3,0.5,0.6,0.7,0.8
		C55.9,148.9,55.7,149.1,55.5,149.4z"/>
</g>
</svg>
